<?xml version="1.0" encoding="utf-8"?>
<!-- Svg Vector Icons : http://www.onlinewebfonts.com/icon -->
<!DOCTYPE svg PUBLIC "-//W3C//DTD SVG 1.1//EN" "http://www.w3.org/Graphics/SVG/1.1/DTD/svg11.dtd">
<svg version="1.1" xmlns="http://www.w3.org/2000/svg" xmlns:xlink="http://www.w3.org/1999/xlink" x="0px" y="0px" viewBox="0 0 1000 1000" enable-background="new 0 0 1000 1000" xml:space="preserve">
<metadata> Svg Vector Icons : http://www.onlinewebfonts.com/icon </metadata>
<g><path d="M878.4,475.7C878.4,475.7,878.4,475.7,878.4,475.7L511.5,108.8h0l0,0c-11.3-11.3-29.5-11.3-40.7,0l-60.1,60.1L282,40.3c-10.3-10.8-24.8-17.6-40.8-17.5c-31.4,0-56.8,25.5-56.8,57c0,16.3,6.9,30.9,17.8,41.3l128.1,128.1L18.4,561.1l0,0c-11.3,11.2-11.3,29.5,0,40.7l366.9,366.9c11.3,11.3,29.5,11.3,40.7,0l0,0l452.3-452.3C889.6,505.2,889.6,487,878.4,475.7z M653.1,581.2H159.6l331.6-331.6L738,496.4L653.1,581.2z"/><path d="M969.6,771.4l-68.3-118.2c-0.4-0.7-0.7-1.3-1.1-2l-0.2-0.3l0,0c-3.5-4.8-9-7.9-15.4-7.9c-5.8,0-10.9,2.6-14.4,6.7l-0.2-0.1l-0.7,1.2c-1,1.3-1.9,2.7-2.5,4.3l-66.7,115.5c-13.1,17.6-20.9,39.2-20.9,62.8c0,58.2,47.2,105.4,105.4,105.4c58.2,0,105.4-47.2,105.4-105.4C990,810.2,982.4,788.8,969.6,771.4z"/></g>
</svg>