<?xml version="1.0" encoding="UTF-8" standalone="no"?>
<svg
   xmlns:dc="http://purl.org/dc/elements/1.1/"
   xmlns:cc="http://creativecommons.org/ns#"
   xmlns:rdf="http://www.w3.org/1999/02/22-rdf-syntax-ns#"
   xmlns:svg="http://www.w3.org/2000/svg"
   xmlns="http://www.w3.org/2000/svg"
   xmlns:sodipodi="http://sodipodi.sourceforge.net/DTD/sodipodi-0.dtd"
   xmlns:inkscape="http://www.inkscape.org/namespaces/inkscape"
   width="24"
   height="24"
   viewBox="0 0 24 24"
   id="svg4184"
   version="1.1"
   inkscape:version="0.91 r13725"
   sodipodi:docname="search2.svg">
  <metadata
     id="metadata4192">
    <rdf:RDF>
      <cc:Work
         rdf:about="">
        <dc:format>image/svg+xml</dc:format>
        <dc:type
           rdf:resource="http://purl.org/dc/dcmitype/StillImage" />
        <dc:title></dc:title>
      </cc:Work>
    </rdf:RDF>
  </metadata>
  <defs
     id="defs4190" />
  <sodipodi:namedview
     pagecolor="#ffffff"
     bordercolor="#666666"
     borderopacity="1"
     objecttolerance="10"
     gridtolerance="10"
     guidetolerance="10"
     inkscape:pageopacity="0"
     inkscape:pageshadow="2"
     inkscape:window-width="1920"
     inkscape:window-height="1056"
     id="namedview4188"
     showgrid="false"
     inkscape:zoom="8"
     inkscape:cx="-51.636219"
     inkscape:cy="-6.0742517"
     inkscape:window-x="0"
     inkscape:window-y="24"
     inkscape:window-maximized="1"
     inkscape:current-layer="svg4184" />
  <path
     d="M 23.822,20.88 23.844,8.901 c 0.93,-1.465 -4.908,-1.95 -4.908,-3.809 0.001,-5.21899999 -86.122,-4.967 -91.343,-4.967 -5.221,0 -2.843,17.123 -2.843,22.343 0,5.221 79.497,-3.531 84.718,-3.531 1.768,0 3.421,-0.487 4.839,-1.333 L 20.703,24 Z M 10.278,13.218 c 0,-3.273 -2.96,-0.688 0.314,-0.688 3.275,0 0.44,-2.461 0.44,0.813 0,3.275 2.335,0.314 -0.94,0.314 -3.274,0 0.186,2.836 0.186,-0.439 z"
     id="path4186"
     inkscape:connector-curvature="0"
     sodipodi:nodetypes="cccssscccsssss" />
</svg>
