<svg xmlns="http://www.w3.org/2000/svg" width="24" height="24" viewBox="0 0 24 24">
    <path fill="#77FF9B" d="M23.822 20.88l-6.353-6.354c.93-1.465 1.467-3.2 1.467-5.059.001-5.219-4.247-9.467-9.468-9.467s-9.468 4.248-9.468 9.468c0 5.221 4.247 9.469 9.468 9.469 1.768 0 3.421-.487 4.839-1.333l6.396 6.396 3.119-3.12zm-20.294-11.412c0-3.273 2.665-5.938 5.939-5.938 3.275 0 5.94 2.664 5.94 5.938 0 3.275-2.665 5.939-5.94 5.939-3.274 0-5.939-2.664-5.939-5.939z">
        <animate to="M 23.822,20.88 23.844,8.901 c 0.93,-1.465 -4.908,-1.95 -4.908,-3.809 0.001,-5.21899999 -86.122,-4.967 -91.343,-4.967 -5.221,0 -2.843,17.123 -2.843,22.343 0,5.221 79.497,-3.531 84.718,-3.531 1.768,0 3.421,-0.487 4.839,-1.333 L 20.703,24 Z M 10.278,13.218 c 0,-3.273 -2.96,-0.688 0.314,-0.688 3.275,0 0.44,-2.461 0.44,0.813 0,3.275 2.335,0.314 -0.94,0.314 -3.274,0 0.186,2.836 0.186,-0.439 z"></animate>
    </path>
</svg>